<?xml version="1.0" encoding="utf-8"?>
<!-- Generator: Adobe Illustrator 20.1.0, SVG Export Plug-In . SVG Version: 6.00 Build 0)  -->
<!DOCTYPE svg PUBLIC "-//W3C//DTD SVG 1.1//EN" "http://www.w3.org/Graphics/SVG/1.1/DTD/svg11.dtd">
<svg version="1.1" id="Layer_1" xmlns="http://www.w3.org/2000/svg" xmlns:xlink="http://www.w3.org/1999/xlink" x="0px" y="0px"
	 viewBox="0 0 1350 725" style="enable-background:new 0 0 1350 725;" xml:space="preserve">
<style type="text/css">
	.st0{clip-path:url(#SVGID_2_);}
	.st1{fill:#EEEDED;}
	.st2{opacity:0.6;}
	.st3{clip-path:url(#SVGID_4_);}
	.st4{fill:none;stroke:#FFFFFF;stroke-width:2.5723;stroke-miterlimit:10;}
</style>
<g>
	<defs>
		<rect id="SVGID_1_" width="1350" height="725"/>
	</defs>
	<clipPath id="SVGID_2_">
		<use xlink:href="#SVGID_1_"  style="overflow:visible;"/>
	</clipPath>
	<g class="st0">
		<rect x="-84.8" class="st1" width="1656.5" height="742"/>
		<g class="st2">
			<defs>
				<rect id="SVGID_3_" x="-84.8" class="st2" width="1656.5" height="742"/>
			</defs>
			<clipPath id="SVGID_4_">
				<use xlink:href="#SVGID_3_"  style="overflow:visible;"/>
			</clipPath>
			<g class="st3">
				<line class="st4" x1="-85.8" y1="53" x2="867" y2="875"/>
				<line class="st4" x1="-85.1" y1="313.2" x2="566.1" y2="875"/>
				<line class="st4" x1="16.7" y1="10.9" x2="459.4" y2="392.8"/>
				<line class="st4" x1="115.5" y1="-28.9" x2="1164.9" y2="869.1"/>
				<line class="st4" x1="-84.3" y1="436.7" x2="129.5" y2="624.2"/>
				<line class="st4" x1="1613.3" y1="-119.6" x2="-87.3" y2="633"/>
				<line class="st4" x1="-84.3" y1="467.7" x2="1277" y2="-127"/>
				<line class="st4" x1="-93.2" y1="308.4" x2="896.5" y2="-127"/>
				<line class="st4" x1="-87.3" y1="202.1" x2="679.7" y2="-127"/>
				<line class="st4" x1="-87.3" y1="61.9" x2="330.1" y2="-128.5"/>
				<polyline class="st4" points="445.2,-128.5 663.5,56 464.3,141.6 				"/>
				<line class="st4" x1="530.7" y1="-128.5" x2="-88.7" y2="141.6"/>
				<line class="st4" x1="-88.7" y1="388" x2="271.1" y2="228.7"/>
				<polyline class="st4" points="-84.3,550.4 398,336.4 430.4,240.5 				"/>
				<line class="st4" x1="-91.7" y1="807.2" x2="882.7" y2="368.4"/>
				<line class="st4" x1="1608.9" y1="218.3" x2="142.8" y2="872.1"/>
				<line class="st4" x1="1611.8" y1="241.9" x2="1176.7" y2="-127"/>
				<line class="st4" x1="946.7" y1="-72.4" x2="881.8" y2="-127"/>
				<line class="st4" x1="1610.4" y1="550.4" x2="911.3" y2="867.7"/>
				<line class="st4" x1="-87.3" y1="560.7" x2="256.4" y2="869.1"/>
				<polyline class="st4" points="265.2,230.1 430.4,240.5 464.3,141.6 213.6,-73.9 				"/>
				<polyline class="st4" points="662.2,57.5 824.2,69.3 850.8,-29.6 737.2,-128.5 				"/>
				<polyline class="st4" points="396.7,338.6 556.2,349.3 690,209.5 308,-116.7 				"/>
				<polyline class="st4" points="850.8,-29.6 1049.5,-113.3 1204.4,-101.2 1217.7,-125.5 				"/>
				<polyline class="st4" points="1461,-124.4 1332.7,1.8 1079.4,38.3 949.9,175.4 946.7,178.9 690,209.5 				"/>
				<polyline class="st4" points="949.9,175.4 882.5,368.1 1205.5,395.8 1139,596.1 527.8,866.2 				"/>
				<polyline class="st4" points="1138,596.1 1462.1,614.9 1398,816.4 1610.4,831.9 				"/>
				<polyline class="st4" points="-86.5,748.9 -68.8,710.1 91.6,723.4 125.9,620.5 289.6,634.9 325.7,537.1 -178,100.9 				"/>
				<line class="st4" x1="487.6" y1="547.4" x2="325.7" y2="537.1"/>
				<line class="st4" x1="596" y1="-126.6" x2="1617" y2="743.3"/>
				<line class="st4" x1="18.6" y1="12.8" x2="4.2" y2="-131.1"/>
				<line class="st4" x1="115.9" y1="-31.4" x2="108.2" y2="-126.6"/>
				<line class="st4" x1="212.9" y1="-76.1" x2="208.8" y2="-126.6"/>
				<line class="st4" x1="1398" y1="816.4" x2="1287.4" y2="867.7"/>
				<line class="st4" x1="1045.5" y1="864.7" x2="1075" y2="790.9"/>
				<line class="st4" x1="741.6" y1="768.8" x2="710.7" y2="870.6"/>
			</g>
		</g>
	</g>
</g>
</svg>
