<?xml version="1.0" encoding="utf-8"?>
<!-- Generator: Adobe Illustrator 20.1.0, SVG Export Plug-In . SVG Version: 6.00 Build 0)  -->
<!DOCTYPE svg PUBLIC "-//W3C//DTD SVG 1.1//EN" "http://www.w3.org/Graphics/SVG/1.1/DTD/svg11.dtd">
<svg version="1.1" id="Layer_1" xmlns="http://www.w3.org/2000/svg" xmlns:xlink="http://www.w3.org/1999/xlink" x="0px" y="0px"
	 viewBox="0 0 201.1 24.9" style="enable-background:new 0 0 201.1 24.9;" xml:space="preserve">
<style type="text/css">
	.st0{fill:#F89A24;}
	.st1{fill:#5A5A5D;}
</style>
<g>
	<g>
		<g>
			<path class="st0" d="M9.9,11.8H4v6.8H0V1.5h4v6.9h5.9V1.5h3.9v17.1H9.9V11.8z"/>
			<path class="st0" d="M15,12.7c0-3.4,2.5-6.2,6.5-6.2c4.1,0,6.6,2.8,6.6,6.2s-2.4,6.2-6.6,6.2C17.5,18.9,15,16.1,15,12.7z
				 M24.4,12.7c0-1.6-1.1-3-2.8-3c-1.7,0-2.8,1.4-2.8,3c0,1.7,1.1,3,2.8,3C23.3,15.7,24.4,14.4,24.4,12.7z"/>
			<path class="st0" d="M29.4,1.5h3.7v1.7v15.4h-3.7V1.5z"/>
			<path class="st0" d="M49.8,18.6v-6.4c0-1.6-0.5-2.5-1.8-2.5c-1.1,0-2,0.7-2,3v5.9h-3.6v-6.4c0-1.6-0.5-2.5-1.8-2.5
				c-1.1,0-2,0.7-2,3.1v5.8H35V6.8l3.6,1.7c0.5-1.1,1.8-2,3.4-2c2.1,0,3.1,0.9,3.6,2.1c0.6-1.2,2-2.1,3.7-2.1c3.4,0,4.1,2.3,4.1,4.8
				v7.3H49.8z"/>
			<path class="st0" d="M58.3,13.6c0.1,1.4,0.7,2.6,2.6,2.6c0.7,0,1.2-0.2,1.5-0.4c0.3-0.2,0.6-0.5,0.8-0.9c0.3,0.1,2.3,1.1,3,1.4
				c-0.9,1.5-2.7,2.6-5.3,2.6c-4.1,0-6.4-2.6-6.4-6.2c0-3.4,2.2-6.2,6.3-6.2c3.7,0,6.1,2.5,6.1,5.4c0,0.5,0,1-0.1,1.7H58.3z
				 M58.3,11.5h4.9c0-1.5-1-2.5-2.4-2.5C59.4,9,58.3,9.9,58.3,11.5z"/>
			<path class="st0" d="M74.6,11.7c-2-0.7-3-0.8-3-1.7C71.6,9.3,72.2,9,73,9c1.1,0,1.9,0.9,2.1,1.3c0.3-0.2,2.8-1.3,2.8-1.3
				c-0.6-1.4-2.2-2.4-4.8-2.4c-3.2,0-5.2,1.1-5.2,3.6c0,2.3,1.7,2.8,3.6,3.4c2.2,0.7,3.2,0.9,3.2,1.8c0,0.8-0.6,1.1-1.5,1.1
				c-1.1,0-1.8-0.3-2.5-1.4c-0.4,0.2-2.8,1.3-2.8,1.3c0.7,1.7,2.5,2.7,5.1,2.7c2.9,0,5.3-1,5.3-3.8C78.4,12.9,76.6,12.3,74.6,11.7z"
				/>
		</g>
	</g>
	<g>
		<path class="st1" d="M100.6,12.5c-0.7,3.6-3.8,6.6-8.5,6.6c-5.8,0-9.2-4.2-9.2-9c0-4.7,3.4-9,9-9c5.3,0,8.2,3.2,8.7,7.1h-4.1
			c-0.4-2-1.9-3.5-4.4-3.5c-3.3,0-5.2,2.6-5.2,5.4c0,3,2,5.5,5.4,5.5c1.9,0,3.6-1.3,4.1-3H100.6z"/>
		<path class="st1" d="M101.6,12.7c0-3.4,2.5-6.2,6.5-6.2c4.1,0,6.5,2.8,6.5,6.2s-2.4,6.2-6.5,6.2C104.1,18.9,101.6,16.1,101.6,12.7
			z M111,12.7c0-1.6-1.1-3-2.8-3c-1.7,0-2.8,1.4-2.8,3c0,1.7,1.1,3,2.8,3C109.9,15.7,111,14.4,111,12.7z"/>
		<path class="st1" d="M116,6.8l3.7,1.7c0.7-1.3,2-2,3.9-2c1.5,0,2.7,0.5,3.3,1.3c0.7,0.9,0.9,2.1,0.9,3.7v7h-3.7v-6
			c0-1.7-0.5-2.9-2.1-2.9c-1.5,0-2.3,1.2-2.3,3v5.9H116V6.8z"/>
		<path class="st1" d="M152.8,6.8v11.8h-3.7v-1.7c-0.7,1.2-2,2-3.9,2c-1.5,0-2.7-0.5-3.3-1.3c-0.7-0.9-0.9-2.1-0.9-3.7v-7h3.7v6
			c0,1.7,0.5,2.9,2.1,2.9c1.5,0,2.3-1.2,2.3-3V6.8H152.8z"/>
		<path class="st1" d="M154.2,1.5h3.7v17.1h-3.7V1.5z"/>
		<path class="st1" d="M167.9,18.6c-0.6,0.1-1.4,0.2-2.5,0.2c-1.8,0-4.2-0.2-4.2-4.2v-5h-1.9V6.8h1.9V3.4h3.7v3.5h2.7v2.8h-2.7v4.2
			c0,1.7,0.7,2,1.6,2c0.5,0,1,0,1.3-0.1V18.6z"/>
		<path class="st1" d="M171.2,0.6c1.4,0,2.4,1.1,2.4,2.4c0,1.3-1.1,2.4-2.4,2.4c-1.3,0-2.4-1.1-2.4-2.4
			C168.8,1.6,169.8,0.6,171.2,0.6z M169.3,6.8h3.7v11.8h-3.7V6.8z"/>
		<path class="st1" d="M174.9,6.8l3.7,1.7c0.7-1.3,2-2,3.9-2c1.5,0,2.7,0.5,3.3,1.3c0.7,0.9,0.9,2.1,0.9,3.7v7H183v-6
			c0-1.7-0.5-2.9-2.1-2.9c-1.5,0-2.3,1.2-2.3,3v5.9h-3.7V6.8z"/>
		<path class="st1" d="M201.1,18.6c0,2.1-0.6,3.5-1.9,4.4c-1.1,0.8-2.6,1.3-4.8,1.3c-2.2,0-3.6-0.5-4.6-1.4c-1-0.9-1.7-2.1-1.7-3.4
			h3.7c0.1,1,1,2,2.6,2c1.8,0,2.9-0.8,2.9-2.7v-2c-0.6,1.1-2.1,1.8-3.6,1.8c-3.4,0-5.8-2.5-5.8-6c0-3.5,2.3-6.2,5.7-6.2
			c1.5,0,3,0.7,3.6,2V6.8h3.7V18.6z M191.7,12.7c0,1.6,1.1,3,2.8,3c1.7,0,2.8-1.4,2.8-3c0-1.6-1.1-3-2.8-3
			C192.9,9.7,191.7,11.1,191.7,12.7z"/>
		<path class="st1" d="M136,11.7c-2-0.7-3-0.8-3-1.7c0-0.7,0.6-1.1,1.4-1.1c1.1,0,1.9,0.9,2.1,1.3c0.3-0.2,2.8-1.3,2.8-1.3
			c-0.6-1.4-2.2-2.4-4.8-2.4c-3.2,0-5.2,1.1-5.2,3.6c0,2.3,1.7,2.8,3.6,3.4c2.2,0.7,3.2,0.9,3.2,1.8c0,0.8-0.6,1.1-1.5,1.1
			c-1.1,0-1.8-0.3-2.5-1.4c-0.4,0.2-2.8,1.3-2.8,1.3c0.7,1.7,2.5,2.7,5.1,2.7c2.9,0,5.3-1,5.3-3.8C139.8,12.9,138.1,12.3,136,11.7z"
			/>
	</g>
</g>
</svg>
